<svg width="19" height="19" viewBox="0 0 19 19" fill="none" xmlns="http://www.w3.org/2000/svg">
<g clip-path="url(#clip0_110_11435)">
<path d="M18.1314 9.06572C18.1314 4.05886 14.0726 0 9.06572 0C4.05886 0 0 4.05886 0 9.06572C0 13.5906 3.31518 17.3412 7.6492 18.0213V11.6863H5.34736V9.06572H7.6492V7.06843C7.6492 4.79633 9.00268 3.5413 11.0735 3.5413C12.065 3.5413 13.1028 3.71836 13.1028 3.71836V5.94938H11.9597C10.8335 5.94938 10.4822 6.64825 10.4822 7.36589V9.06572H12.9966L12.5946 11.6863H10.4822V18.0213C14.8162 17.3412 18.1314 13.5906 18.1314 9.06572Z" fill="#00171F"/>
</g>
<defs>
<clipPath id="clip0_110_11435">
<rect width="18.1314" height="18.1314" fill="white"/>
</clipPath>
</defs>
</svg>
