<svg width="19" height="19" viewBox="0 0 19 19" fill="none" xmlns="http://www.w3.org/2000/svg">
<path d="M9.06572 1.63254C11.488 1.63254 11.7748 1.64316 12.7274 1.68566C13.6127 1.72461 14.0908 1.87335 14.4095 1.99729C14.8309 2.16019 15.1355 2.3585 15.4507 2.67368C15.7694 2.99239 15.9642 3.2934 16.1271 3.71482C16.251 4.03354 16.3997 4.51515 16.4387 5.39693C16.4812 6.35308 16.4918 6.63993 16.4918 9.05863C16.4918 11.4809 16.4812 11.7677 16.4387 12.7203C16.3997 13.6057 16.251 14.0837 16.1271 14.4024C15.9642 14.8239 15.7658 15.1284 15.4507 15.4436C15.132 15.7623 14.8309 15.9571 14.4095 16.12C14.0908 16.2439 13.6092 16.3927 12.7274 16.4316C11.7713 16.4741 11.4844 16.4847 9.06572 16.4847C6.64347 16.4847 6.35663 16.4741 5.40402 16.4316C4.51869 16.3927 4.04062 16.2439 3.7219 16.12C3.30049 15.9571 2.99594 15.7588 2.68076 15.4436C2.36204 15.1249 2.16727 14.8239 2.00437 14.4024C1.88043 14.0837 1.73169 13.6021 1.69274 12.7203C1.65024 11.7642 1.63962 11.4773 1.63962 9.05863C1.63962 6.63639 1.65024 6.34954 1.69274 5.39693C1.73169 4.51161 1.88043 4.03354 2.00437 3.71482C2.16727 3.2934 2.36559 2.98885 2.68076 2.67368C2.99948 2.35496 3.30049 2.16019 3.7219 1.99729C4.04062 1.87335 4.52223 1.72461 5.40402 1.68566C6.35663 1.64316 6.64347 1.63254 9.06572 1.63254ZM9.06572 0C6.60452 0 6.29642 0.0106239 5.32965 0.0531194C4.36642 0.095615 3.70419 0.251432 3.1305 0.474533C2.53203 0.708259 2.02562 1.01635 1.52276 1.52276C1.01635 2.02562 0.708259 2.53203 0.474534 3.12696C0.251432 3.7042 0.095615 4.36288 0.0531194 5.32611C0.0106239 6.29642 0 6.60452 0 9.06572C0 11.5269 0.0106239 11.835 0.0531194 12.8018C0.095615 13.765 0.251432 14.4272 0.474534 15.0009C0.708259 15.5994 1.01635 16.1058 1.52276 16.6087C2.02562 17.1115 2.53203 17.4232 3.12696 17.6534C3.70419 17.8765 4.36288 18.0323 5.32611 18.0748C6.29288 18.1173 6.60097 18.1279 9.06217 18.1279C11.5234 18.1279 11.8315 18.1173 12.7982 18.0748C13.7615 18.0323 14.4237 17.8765 14.9974 17.6534C15.5923 17.4232 16.0987 17.1115 16.6016 16.6087C17.1045 16.1058 17.4161 15.5994 17.6463 15.0045C17.8694 14.4272 18.0252 13.7686 18.0677 12.8053C18.1102 11.8386 18.1208 11.5305 18.1208 9.06926C18.1208 6.60806 18.1102 6.29996 18.0677 5.33319C18.0252 4.36996 17.8694 3.70774 17.6463 3.13405C17.4232 2.53203 17.1151 2.02562 16.6087 1.52276C16.1058 1.01989 15.5994 0.708259 15.0045 0.478075C14.4272 0.254973 13.7686 0.0991563 12.8053 0.0566607C11.835 0.0106239 11.5269 0 9.06572 0Z" fill="#00171F"/>
<path d="M9.06549 4.40918C6.49451 4.40918 4.40869 6.495 4.40869 9.06598C4.40869 11.637 6.49451 13.7228 9.06549 13.7228C11.6365 13.7228 13.7223 11.637 13.7223 9.06598C13.7223 6.495 11.6365 4.40918 9.06549 4.40918ZM9.06549 12.0867C7.39754 12.0867 6.04477 10.7339 6.04477 9.06598C6.04477 7.39803 7.39754 6.04526 9.06549 6.04526C10.7334 6.04526 12.0862 7.39803 12.0862 9.06598C12.0862 10.7339 10.7334 12.0867 9.06549 12.0867Z" fill="#00171F"/>
<path d="M14.9937 4.22487C14.9937 4.8269 14.505 5.31205 13.9065 5.31205C13.3045 5.31205 12.8193 4.82335 12.8193 4.22487C12.8193 3.62285 13.308 3.1377 13.9065 3.1377C14.505 3.1377 14.9937 3.62639 14.9937 4.22487Z" fill="#00171F"/>
</svg>
