<svg width="16" height="16" viewBox="0 0 16 16" fill="none" xmlns="http://www.w3.org/2000/svg">
<g clip-path="url(#clip0_110_11455)">
<path d="M7.55476 1.36045C9.5733 1.36045 9.81234 1.3693 10.6062 1.40471C11.3439 1.43718 11.7423 1.56112 12.0079 1.66441C12.3591 1.80016 12.6129 1.96542 12.8756 2.22807C13.1412 2.49366 13.3035 2.7445 13.4392 3.09568C13.5425 3.36128 13.6664 3.76263 13.6989 4.49745C13.7343 5.29424 13.7432 5.53327 13.7432 7.54886C13.7432 9.5674 13.7343 9.80644 13.6989 10.6003C13.6664 11.338 13.5425 11.7364 13.4392 12.002C13.3035 12.3532 13.1382 12.607 12.8756 12.8697C12.61 13.1353 12.3591 13.2976 12.0079 13.4333C11.7423 13.5366 11.341 13.6605 10.6062 13.693C9.80939 13.7284 9.57035 13.7373 7.55476 13.7373C5.53622 13.7373 5.29719 13.7284 4.50335 13.693C3.76558 13.6605 3.36718 13.5366 3.10158 13.4333C2.75041 13.2976 2.49661 13.1323 2.23397 12.8697C1.96837 12.6041 1.80606 12.3532 1.67031 12.002C1.56702 11.7364 1.44308 11.3351 1.41062 10.6003C1.3752 9.80349 1.36635 9.56445 1.36635 7.54886C1.36635 5.53032 1.3752 5.29129 1.41062 4.49745C1.44308 3.75968 1.56702 3.36128 1.67031 3.09568C1.80606 2.7445 1.97132 2.49071 2.23397 2.22807C2.49956 1.96247 2.75041 1.80016 3.10158 1.66441C3.36718 1.56112 3.76853 1.43718 4.50335 1.40471C5.29719 1.3693 5.53622 1.36045 7.55476 1.36045ZM7.55476 0C5.50376 0 5.24702 0.00885324 4.44137 0.0442662C3.63868 0.0796791 3.08683 0.209527 2.60875 0.395445C2.11002 0.590216 1.68802 0.84696 1.26896 1.26896C0.84696 1.68802 0.590216 2.11002 0.395445 2.6058C0.209527 3.08683 0.0796791 3.63573 0.0442662 4.43842C0.00885324 5.24702 0 5.50376 0 7.55476C0 9.60576 0.00885324 9.86251 0.0442662 10.6682C0.0796791 11.4708 0.209527 12.0227 0.395445 12.5008C0.590216 12.9995 0.84696 13.4215 1.26896 13.8406C1.68802 14.2596 2.11002 14.5193 2.6058 14.7111C3.08683 14.897 3.63573 15.0269 4.43842 15.0623C5.24407 15.0977 5.50081 15.1066 7.55181 15.1066C9.60281 15.1066 9.85956 15.0977 10.6652 15.0623C11.4679 15.0269 12.0197 14.897 12.4978 14.7111C12.9936 14.5193 13.4156 14.2596 13.8347 13.8406C14.2537 13.4215 14.5134 12.9995 14.7052 12.5037C14.8911 12.0227 15.021 11.4738 15.0564 10.6711C15.0918 9.86546 15.1007 9.60872 15.1007 7.55771C15.1007 5.50671 15.0918 5.24997 15.0564 4.44433C15.021 3.64163 14.8911 3.08978 14.7052 2.61171C14.5193 2.11002 14.2626 1.68802 13.8406 1.26896C13.4215 0.849911 12.9995 0.590216 12.5037 0.398396C12.0227 0.212478 11.4738 0.0826302 10.6711 0.0472173C9.86251 0.00885324 9.60576 0 7.55476 0Z" fill="#00171F"/>
<path d="M7.55499 3.67383C5.4125 3.67383 3.67432 5.41201 3.67432 7.5545C3.67432 9.69698 5.4125 11.4352 7.55499 11.4352C9.69747 11.4352 11.4357 9.69698 11.4357 7.5545C11.4357 5.41201 9.69747 3.67383 7.55499 3.67383ZM7.55499 10.0718C6.16503 10.0718 5.03771 8.94446 5.03771 7.5545C5.03771 6.16454 6.16503 5.03723 7.55499 5.03723C8.94494 5.03723 10.0723 6.16454 10.0723 7.5545C10.0723 8.94446 8.94494 10.0718 7.55499 10.0718Z" fill="#00171F"/>
<path d="M12.4951 3.52024C12.4951 4.02192 12.0878 4.42622 11.5891 4.42622C11.0874 4.42622 10.6831 4.01897 10.6831 3.52024C10.6831 3.01856 11.0904 2.61426 11.5891 2.61426C12.0878 2.61426 12.4951 3.02151 12.4951 3.52024Z" fill="#00171F"/>
</g>
<defs>
<clipPath id="clip0_110_11455">
<rect width="15.1095" height="15.1095" fill="white"/>
</clipPath>
</defs>
</svg>
