<svg width="16" height="16" viewBox="0 0 16 16" fill="none" xmlns="http://www.w3.org/2000/svg">
<path d="M13.6679 12.774L11.3323 10.4572C12.2389 9.32674 12.678 7.89189 12.5592 6.44767C12.4404 5.00346 11.7728 3.65964 10.6936 2.69254C9.61442 1.72545 8.20573 1.20858 6.75718 1.24822C5.30863 1.28785 3.93032 1.88098 2.90565 2.90565C1.88098 3.93032 1.28785 5.30863 1.24822 6.75718C1.20858 8.20573 1.72545 9.61442 2.69254 10.6936C3.65964 11.7728 5.00346 12.4404 6.44767 12.5592C7.89189 12.678 9.32674 12.2389 10.4572 11.3323L12.774 13.6491C12.8325 13.7081 12.9021 13.7549 12.9788 13.7869C13.0556 13.8188 13.1378 13.8353 13.221 13.8353C13.3041 13.8353 13.3864 13.8188 13.4631 13.7869C13.5398 13.7549 13.6094 13.7081 13.6679 13.6491C13.7814 13.5317 13.8449 13.3748 13.8449 13.2115C13.8449 13.0482 13.7814 12.8914 13.6679 12.774ZM6.92532 11.3323C6.05371 11.3323 5.20167 11.0738 4.47696 10.5896C3.75224 10.1053 3.18739 9.41705 2.85384 8.61179C2.52029 7.80653 2.43301 6.92044 2.60306 6.06557C2.7731 5.21071 3.19282 4.42547 3.80914 3.80914C4.42547 3.19282 5.21071 2.7731 6.06557 2.60306C6.92044 2.43301 7.80653 2.52029 8.61179 2.85384C9.41705 3.18739 10.1053 3.75224 10.5896 4.47696C11.0738 5.20167 11.3323 6.05371 11.3323 6.92532C11.3323 8.09412 10.868 9.21504 10.0415 10.0415C9.21504 10.868 8.09412 11.3323 6.92532 11.3323Z" fill="#667479"/>
</svg>
