<svg width="19" height="19" viewBox="0 0 19 19" fill="none" xmlns="http://www.w3.org/2000/svg">
<g clip-path="url(#clip0_110_11436)">
<path d="M5.70396 16.4315C12.5443 16.4315 16.2868 10.763 16.2868 5.84874C16.2868 5.68938 16.2832 5.52648 16.2761 5.36713C17.0042 4.84064 17.6324 4.1885 18.1314 3.44137C17.4534 3.74303 16.7335 3.94005 15.9964 4.02568C16.7725 3.56044 17.3537 2.82957 17.6321 1.96855C16.9019 2.40128 16.1034 2.70653 15.2708 2.87122C14.7098 2.27511 13.968 1.88042 13.1602 1.74816C12.3523 1.6159 11.5234 1.75345 10.8016 2.13953C10.0798 2.52562 9.50525 3.13873 9.16683 3.88409C8.82842 4.62945 8.74496 5.46553 8.92937 6.26307C7.45088 6.18888 6.00448 5.80481 4.68394 5.13575C3.3634 4.4667 2.1982 3.5276 1.26389 2.37934C0.789019 3.19807 0.643709 4.16689 0.857489 5.08891C1.07127 6.01093 1.6281 6.81695 2.41481 7.34317C1.82419 7.32442 1.24652 7.1654 0.729507 6.87926V6.9253C0.728978 7.78449 1.02601 8.61736 1.57011 9.28231C2.11422 9.94727 2.87181 10.4033 3.71411 10.5728C3.167 10.7225 2.59278 10.7443 2.03589 10.6366C2.27357 11.3755 2.73601 12.0218 3.35867 12.4852C3.98134 12.9486 4.73315 13.2061 5.50919 13.2217C4.1917 14.2566 2.56422 14.818 0.888865 14.8153C0.591755 14.8148 0.294937 14.7966 0 14.7608C1.70198 15.8527 3.68184 16.4326 5.70396 16.4315Z" fill="#00171F"/>
</g>
<defs>
<clipPath id="clip0_110_11436">
<rect width="18.1314" height="18.1314" fill="white"/>
</clipPath>
</defs>
</svg>
