<svg width="19" height="13" viewBox="0 0 19 13" fill="none" xmlns="http://www.w3.org/2000/svg">
<path d="M17.9508 2.75159C17.9508 2.75159 17.7738 1.50151 17.2284 0.952608C16.5378 0.230184 15.7658 0.226643 15.4117 0.184147C12.8762 -1.01317e-07 9.06926 0 9.06926 0H9.06217C9.06217 0 5.25528 -1.01317e-07 2.71971 0.184147C2.36559 0.226643 1.59358 0.230184 0.90303 0.952608C0.357671 1.50151 0.184147 2.75159 0.184147 2.75159C0.184147 2.75159 0 4.22122 0 5.68732V7.06134C0 8.52744 0.180606 9.99708 0.180606 9.99708C0.180606 9.99708 0.357671 11.2472 0.899489 11.7961C1.59004 12.5185 2.49661 12.4937 2.90032 12.5716C4.35225 12.7097 9.06572 12.7522 9.06572 12.7522C9.06572 12.7522 12.8762 12.7451 15.4117 12.5645C15.7658 12.522 16.5378 12.5185 17.2284 11.7961C17.7738 11.2472 17.9508 9.99708 17.9508 9.99708C17.9508 9.99708 18.1314 8.53098 18.1314 7.06134V5.68732C18.1314 4.22122 17.9508 2.75159 17.9508 2.75159ZM7.19237 8.72929V3.63337L12.09 6.19018L7.19237 8.72929Z" fill="#00171F"/>
</svg>
