<svg width="87" height="31" viewBox="0 0 87 31" fill="none" xmlns="http://www.w3.org/2000/svg">
<g clip-path="url(#clip0_110_11279)">
<path d="M24.6046 24.6533C25.0898 24.6533 25.4914 24.8176 25.8135 25.1422C26.1435 25.4667 26.3026 25.8715 26.3026 26.3523C26.3026 26.8331 26.1435 27.2298 25.8135 27.5624C25.4914 27.887 25.0898 28.0513 24.6046 28.0513H23.5588V29.8224H22.7158V24.6573H24.6046V24.6533ZM24.6046 27.2499C25.1017 27.2499 25.4596 26.8732 25.4596 26.3483C25.4596 25.8234 25.1017 25.4467 24.6046 25.4467H23.5588V27.2459H24.6046V27.2499Z" fill="#103559"/>
<path d="M27.5714 28.343C27.6933 28.8605 28.1683 29.1452 28.8115 29.1452C29.2529 29.1452 29.5851 29.001 29.8121 28.7238L30.5015 29.0787C30.1232 29.574 29.5556 29.8217 28.8073 29.8217C28.181 29.8217 27.6681 29.6517 27.2813 29.319C26.8946 28.9788 26.7012 28.55 26.7012 28.0324C26.7012 27.5149 26.8946 27.1008 27.2729 26.7607C27.6513 26.4132 28.1473 26.2432 28.7443 26.2432C29.3076 26.2432 29.7742 26.4206 30.1358 26.7681C30.5015 27.1156 30.6865 27.5445 30.6865 28.0398C30.6865 28.1138 30.6781 28.2173 30.6571 28.3467H27.5756L27.5714 28.343ZM29.8415 27.7441C29.7238 27.1933 29.2824 26.9049 28.7359 26.9049C28.1179 26.9049 27.6849 27.2265 27.5672 27.7441H29.8415Z" fill="#103559"/>
<path d="M33.0772 26.855H32.1625V28.6311C32.1625 29.1053 32.4714 29.0972 33.0772 29.0691V29.7884C31.8576 29.937 31.3641 29.6035 31.3641 28.6351V26.859H30.686V26.0875H31.3641V25.2879L32.1625 25.0508V26.0875H33.0772V26.859V26.855Z" fill="#103559"/>
<path d="M35.043 27.7123C35.5819 27.8271 36.2802 28.0454 36.2651 28.7744C36.2651 29.1001 36.1322 29.3591 35.8742 29.5442C35.6161 29.7292 35.2935 29.8217 34.9026 29.8217C34.2119 29.8217 33.6995 29.522 33.4756 29.0261L34.1246 28.6597C34.2422 28.9854 34.5003 29.1519 34.8988 29.1519C35.2973 29.1519 35.4946 29.0224 35.4946 28.7707C35.4946 28.5524 35.2024 28.4229 34.8305 28.3341C34.3067 28.2045 33.6008 28.001 33.616 27.2831C33.616 26.9685 33.7337 26.7169 33.9803 26.5281C34.2232 26.3357 34.5344 26.2432 34.895 26.2432C35.4757 26.2432 35.9425 26.5096 36.1892 26.9537L35.5516 27.3016C35.4339 27.0425 35.21 26.913 34.895 26.913C34.6104 26.913 34.3864 27.0351 34.3864 27.2757C34.3864 27.5014 34.6787 27.6161 35.043 27.7197V27.7123Z" fill="#103559"/>
<path d="M41.0474 25.4134C40.4195 25.3623 40.1142 25.6022 40.1142 26.1292V26.2H41.0474V26.9552H40.1142V29.8224H39.2583V26.9552H38.6562V26.2H39.2583V26.1292C39.2583 25.1381 39.8776 24.5953 41.0474 24.6582V25.4134Z" fill="#103559"/>
<path d="M42.029 29.3042C41.6436 28.9567 41.4468 28.5352 41.4468 28.0324C41.4468 27.5297 41.6436 27.1082 42.029 26.7607C42.4144 26.4132 42.89 26.2432 43.4394 26.2432C43.9888 26.2432 44.4645 26.4132 44.8499 26.7607C45.2353 27.1082 45.4321 27.5297 45.4321 28.0324C45.4321 28.5352 45.2353 28.9567 44.8499 29.3042C44.4645 29.6517 43.997 29.8217 43.4394 29.8217C42.8818 29.8217 42.4144 29.6517 42.029 29.3042ZM43.4394 29.1082C43.7715 29.1082 44.0504 29.0047 44.2759 28.8014C44.5014 28.5981 44.6162 28.3393 44.6162 28.0324C44.6162 27.7256 44.5014 27.4668 44.2759 27.2635C44.0504 27.0602 43.7715 26.9567 43.4394 26.9567C43.1073 26.9567 42.8285 27.0602 42.603 27.2635C42.3775 27.4668 42.2627 27.7256 42.2627 28.0324C42.2627 28.3393 42.3775 28.5981 42.603 28.8014C42.8285 29.0047 43.1073 29.1082 43.4394 29.1082Z" fill="#103559"/>
<path d="M46.6516 26.8962C46.8578 26.4609 47.2539 26.2432 47.8232 26.2432V27.0643C47.5138 27.0414 47.2374 27.1139 47.0022 27.2743C46.7671 27.4309 46.6516 27.6906 46.6516 28.0496V29.8217H45.8306V26.3043H46.6516V26.8962Z" fill="#103559"/>
<path d="M53.8011 28.3466C53.8011 28.7677 53.6598 29.1206 53.3733 29.4013C53.0868 29.682 52.7392 29.8224 52.3267 29.8224H50.2144V24.6533H52.1701C52.5712 24.6533 52.9149 24.7937 53.19 25.0664C53.4726 25.3391 53.6101 25.6799 53.6101 26.0849C53.6101 26.5341 53.4421 26.8829 53.1098 27.1396C53.5376 27.3762 53.7973 27.8053 53.7973 28.3426L53.8011 28.3466ZM51.0242 25.4513V26.8108H52.1701C52.5291 26.8108 52.8042 26.514 52.8042 26.1331C52.8042 25.7521 52.5291 25.4553 52.1701 25.4553H51.0242V25.4513ZM52.3267 29.0244C52.701 29.0244 52.9952 28.7076 52.9952 28.3025C52.9952 27.8975 52.701 27.5807 52.3267 27.5807H51.0242V29.0284H52.3267V29.0244Z" fill="#103559"/>
<path d="M55.4679 28.343C55.5897 28.8605 56.0642 29.1452 56.7068 29.1452C57.1477 29.1452 57.4795 29.001 57.7063 28.7238L58.395 29.0787C58.017 29.574 57.4501 29.8217 56.7026 29.8217C56.0769 29.8217 55.5645 29.6517 55.1782 29.319C54.7918 28.9788 54.5986 28.55 54.5986 28.0324C54.5986 27.5149 54.7918 27.1008 55.1698 26.7607C55.5477 26.4132 56.0433 26.2432 56.6396 26.2432C57.2023 26.2432 57.6685 26.4206 58.0338 26.7681C58.3992 27.1156 58.5839 27.5445 58.5839 28.0398C58.5839 28.1138 58.5755 28.2173 58.5546 28.3467H55.4763L55.4679 28.343ZM57.7357 27.7441C57.6181 27.1933 57.1771 26.9049 56.6312 26.9049C56.0139 26.9049 55.5813 27.2265 55.4637 27.7441H57.7398H57.7357Z" fill="#103559"/>
<path d="M60.1509 27.7123C60.6898 27.8271 61.3882 28.0454 61.373 28.7744C61.373 29.1001 61.2401 29.3591 60.9821 29.5442C60.724 29.7292 60.4014 29.8217 60.0105 29.8217C59.3198 29.8217 58.8074 29.522 58.5835 29.0261L59.2325 28.6597C59.3501 28.9854 59.6082 29.1519 60.0067 29.1519C60.4052 29.1519 60.6025 29.0224 60.6025 28.7707C60.6025 28.5524 60.3103 28.4229 59.9384 28.3341C59.4146 28.2045 58.7087 28.001 58.7239 27.2831C58.7239 26.9685 58.8416 26.7169 59.0883 26.5281C59.3312 26.3357 59.6424 26.2432 60.0029 26.2432C60.5836 26.2432 61.0504 26.5096 61.2971 26.9537L60.6595 27.3016C60.5418 27.0425 60.3179 26.913 60.0029 26.913C59.7183 26.913 59.4943 27.0351 59.4943 27.2757C59.4943 27.5014 59.7866 27.6161 60.1509 27.7197V27.7123Z" fill="#103559"/>
<path d="M64.1627 26.855H63.2495V28.6311C63.2495 29.1053 63.5579 29.0972 64.1627 29.0691V29.7884C62.945 29.937 62.4524 29.6035 62.4524 28.6351V26.859H61.7715V26.0875H62.4524V25.2879L63.2495 25.0508V26.0875H64.1627V26.859V26.855Z" fill="#103559"/>
<path d="M18.8778 2.43001C18.7735 1.40161 18.3603 1.19434 17.558 1.19434H14.1402C13.39 1.19434 13.2095 1.32189 12.9247 2.147L10.3613 10.4818L7.79796 2.147C7.51314 1.32189 7.33262 1.19434 6.58246 1.19434H3.16063C2.35833 1.19434 1.94514 1.40161 1.84084 2.43001L0.0276324 18.7927C-0.0485866 19.3826 0.00356322 19.6178 0.52105 19.6935L4.43229 20.2595C5.02599 20.3353 5.15837 20.2077 5.23459 19.7693L6.08905 12.1041L7.92632 19.283C8.10684 19.8729 8.33951 20.1081 8.93723 20.1081H11.7854C12.3791 20.1081 12.6158 19.8769 12.7963 19.283L14.6095 12.1041L15.488 19.7693C15.5643 20.2077 15.6966 20.3353 16.2904 20.2595L20.2016 19.6935C20.7191 19.6178 20.7712 19.3866 20.695 18.7927L18.8778 2.43001Z" fill="#103559"/>
<path d="M28.2955 5.56738C23.9061 5.56738 21.5205 8.57597 21.5205 12.7245C21.5205 16.8731 23.9061 19.8817 28.2955 19.8817C32.685 19.8817 35.0706 16.8731 35.0706 12.7245C35.0706 8.57597 32.685 5.56738 28.2955 5.56738ZM28.2955 15.2003C27.2419 15.2003 26.6773 14.2132 26.6773 12.7206C26.6773 11.2281 27.2419 10.2409 28.2955 10.2409C29.3492 10.2409 29.9138 11.2281 29.9138 12.7206C29.9138 14.2132 29.3492 15.2003 28.2955 15.2003Z" fill="#103559"/>
<path d="M44.9142 5.57533C44.0143 5.57533 37.2817 5.75411 36.8437 6.3699C36.6645 6.57649 36.6646 6.85857 36.6646 7.34326L36.8716 18.5229C36.8955 19.5479 37.1304 19.8817 38.0262 19.8817H41.1636C42.0634 19.8817 42.3182 19.5479 42.3182 18.5229V10.8036C42.7044 10.6765 42.8318 10.6249 43.2698 10.597C43.8591 10.5732 44.1418 10.752 44.3249 11.2367C44.4523 11.7492 44.4802 12.5199 44.4802 13.5688L44.4563 18.519C44.4563 19.544 44.739 19.8777 45.6388 19.8777H48.8518C49.7516 19.8777 49.9826 19.544 50.0065 18.519L50.2135 11.6975C50.2374 10.0289 49.879 8.49142 49.031 7.36312C48.1312 6.23483 46.7934 5.56738 44.9181 5.56738L44.9142 5.57533Z" fill="#103559"/>
<path d="M56.9728 7.1582H53.7432C52.8596 7.1582 52.6055 7.46294 52.6055 8.48797V18.5285C52.6055 19.5496 52.8596 19.882 53.7432 19.882H57.0237C57.9073 19.882 58.1849 19.5496 58.1849 18.5285L58.1341 8.48797C58.1341 7.49064 57.8565 7.1582 56.9728 7.1582Z" fill="#103559"/>
<path d="M55.5945 0.399414C53.6817 0.399414 52.6055 1.57728 52.6055 3.18275C52.6055 4.78822 53.6817 5.96608 55.5945 5.96608C57.5072 5.96608 58.5834 4.78822 58.5834 3.18275C58.5834 1.57728 57.5072 0.399414 55.5945 0.399414Z" fill="#103559"/>
<path d="M69.463 5.98462H67.4764V2.52784C67.4764 1.5039 67.2134 1.19434 66.3031 1.19434H63.22C62.3056 1.19434 62.0184 1.52771 62.0184 2.52784V5.98462H60.4526C59.5908 5.98462 59.3804 6.1394 59.3804 6.93315V9.72715C59.3804 10.5209 59.5908 10.6757 60.4526 10.6757H62.0184V15.5414C62.0184 18.8196 63.7662 20.2801 67.0597 20.2801C68.0267 20.2801 68.9937 20.2046 69.9081 20.0221C70.3005 19.9467 70.4057 19.8435 70.4057 19.4585L70.2762 15.5374C70.2762 15.204 70.0942 15.077 69.7543 15.1524C69.4671 15.2278 69.1798 15.2794 68.7873 15.2794C68.0307 15.2794 67.4805 15.0215 67.4805 13.9221V10.6677H69.467C70.3288 10.6677 70.5392 10.513 70.5392 9.71921V6.92521C70.5392 6.13146 70.3288 5.97668 69.467 5.97668L69.463 5.98462Z" fill="#103559"/>
<path d="M78.1115 5.56738C73.722 5.56738 71.3364 8.57597 71.3364 12.7245C71.3364 16.8731 73.722 19.8817 78.1115 19.8817C82.5009 19.8817 84.8865 16.8731 84.8865 12.7245C84.8865 8.57597 82.5009 5.56738 78.1115 5.56738ZM78.1115 15.2003C77.0578 15.2003 76.4932 14.2132 76.4932 12.7206C76.4932 11.2281 77.0578 10.2409 78.1115 10.2409C79.1651 10.2409 79.7297 11.2281 79.7297 12.7206C79.7297 14.2132 79.1651 15.2003 78.1115 15.2003Z" fill="#103559"/>
<path d="M86.1469 6.12879C85.6864 5.79657 84.9321 5.98852 84.4558 6.55699C83.9794 7.12546 83.9675 7.85634 84.424 8.18857C84.8845 8.52079 85.6387 8.32884 86.1151 7.76037C86.5915 7.1919 86.6034 6.46101 86.1469 6.12879Z" fill="#103559"/>
<path d="M75.309 5.16278C75.8502 5.07965 76.2049 4.39487 76.1004 3.63093C75.9958 2.86698 75.4769 2.31283 74.9356 2.39595C74.3944 2.47907 74.0397 3.16385 74.1442 3.9278C74.2488 4.69174 74.7677 5.2459 75.309 5.16278Z" fill="#103559"/>
<path d="M82.3233 5.86468C83.0722 6.24271 84.2058 5.52774 84.8513 4.26626C85.4967 3.00478 85.414 1.67346 84.6609 1.29542C83.9121 0.917392 82.7784 1.63237 82.133 2.89384C81.4875 4.15532 81.5703 5.48665 82.3233 5.86468Z" fill="#103559"/>
<path d="M78.4459 4.76596C79.2006 4.86201 79.9329 3.87348 80.0787 2.56078C80.2244 1.24408 79.7312 0.103475 78.9727 0.00742395C78.218 -0.0886272 77.4857 0.8999 77.34 2.2126C77.1942 3.5293 77.6874 4.66991 78.4459 4.76596Z" fill="#103559"/>
</g>
<defs>
<clipPath id="clip0_110_11279">
<rect width="86.8798" height="30.2191" fill="white"/>
</clipPath>
</defs>
</svg>
